<?xml version="1.0" encoding="utf-8"?>
<!-- Generator: Adobe Illustrator 18.1.1, SVG Export Plug-In . SVG Version: 6.00 Build 0)  -->
<!DOCTYPE svg PUBLIC "-//W3C//DTD SVG 1.1//EN" "http://www.w3.org/Graphics/SVG/1.1/DTD/svg11.dtd">
<svg version="1.1" id="Layer_1" xmlns="http://www.w3.org/2000/svg" xmlns:xlink="http://www.w3.org/1999/xlink" x="0px" y="0px"
	 viewBox="0 0 612 792" enable-background="new 0 0 612 792" xml:space="preserve">
<circle fill="#2AB734" stroke="#050505" stroke-width="4" stroke-miterlimit="10" cx="305" cy="396" r="253"/>
<path fill="#FCFCFC" stroke="#070707" stroke-width="4" stroke-miterlimit="10" d="M430,540c-87,13-221,11-221,11v-56
	c0,0,77.7,6.2,129,9c50.2,2.7,125,6,156.9-24.7c8.3-8,16.1-31.3-64.3-37.9C375,437,313,421,314,389c1-33.2,48-36,73-36
	c57.5,0,168.6,1.6,168,2c-0.9,0.6-114.2,3.2-151.1,3.1c-58.9-0.1-62.1,18.3-62.1,29.2c0,13.1,13.2,28.7,87.4,35.3
	c84.8,8.5,115.6,25.6,113.4,57.4C536.4,504.9,516,527.1,430,540z"/>
<path fill="#F7763E" stroke="#020202" stroke-width="4" stroke-miterlimit="10" d="M199.5,548.5c-31.8-28.1-69.4-106.1-76.2-144
	c-8.3-46-11.3-70.6,4.7-92.9c22.2-31.2,64.2-31.8,67.3-31.8c2.4,0,44.3,0.6,67.3,31.8c15.7,21.3,16.8,40.4,8.6,95.2
	c-9.6,64-28.3,115.8-54.1,141.7C211.3,554.2,201.6,550.4,199.5,548.5z"/>
<path fill="#FCFCFC" stroke="#020202" stroke-width="2" stroke-miterlimit="10" d="M197.6,419.4c-2.1,0-4.2-0.1-6.1-0.2
	c-3.3-0.2-1.3,18.4-4.1,17.9c-1-0.2-8,1.8-9-1.9c-1.6-6.2-2.1-18.6-3.5-19c-15.9-5.4-19.9-16.7-19.9-26.6c0-1.3,1.1-2.3,2.3-2.3
	h10.4c1.1,0,2.1,0.8,2.3,2c1.6,10.6,6.2,15.9,27.6,15.9c16.9,0,24.2-3.9,24.2-12.9c0-5.2-2.1-9-28.4-11.6c-22-2.2-35.6-7-35.6-24.7
	c0-11.2,6.5-19.3,18-23.2c1.3-0.4,0.6-14.2,1.9-20.4c0.6-2.9,7.3-1,7.9-1.1c2.3-0.5,0.8,19.2,3.4,19c1.7-0.1,3.5-0.2,5.4-0.2
	c2.5,0,4.8,0.1,7.1,0.2c1.6,0.1,0-18.7,1.5-18.5c0.8,0.1,6.6-1.1,7.3,1.5c1.8,6.2,1.5,18.6,3.1,19c13.2,3.7,20,12.2,21.2,25.9
	c0,0.6-0.2,1.3-0.6,1.8c-0.5,0.5-1.1,0.7-1.7,0.7h-10.5c-1.1,0-2-0.8-2.2-1.8c-2.5-11.2-8.6-14.7-25.2-14.7
	c-18.5,0-20.7,6.4-20.7,11.3c0,5.9,2.5,7.6,27.6,10.9c24.7,3.3,36.5,7.9,36.5,25.3c0,12.1-6.9,20.6-19.5,24.7
	c-2.1,0.7,0.7,18.3-1.7,18.7c-0.7,0.1-8.5,5-9.3,0.5c-0.9-5.2,0.2-16.8-0.7-16.7C203.8,419.2,200.8,419.4,197.6,419.4z"/>
</svg>
