<?xml version="1.0" encoding="utf-8"?>
<!-- Generator: Adobe Illustrator 18.1.1, SVG Export Plug-In . SVG Version: 6.00 Build 0)  -->
<!DOCTYPE svg PUBLIC "-//W3C//DTD SVG 1.1//EN" "http://www.w3.org/Graphics/SVG/1.1/DTD/svg11.dtd">
<svg version="1.1" id="Layer_1" xmlns="http://www.w3.org/2000/svg" xmlns:xlink="http://www.w3.org/1999/xlink" x="0px" y="0px"
	 viewBox="49.8 222.1 607.8 607.8" enable-background="new 49.8 222.1 607.8 607.8" xml:space="preserve">
<g id="Layer_2">
</g>
<g id="Layer_1_1_">
	<path fill="#848484" d="M246.6,713.5c0,0,385-36.8,342.8-237.4C565.5,363,320.7,413.9,351.6,316.8c17.2-54.2,56.2-68.5,56.2-68.5
		l-24.5-3.6c0,0-76.1,48.4-61.8,118.5c15,73.7,160.2,68.6,176.4,106.6c37.7,88.5-203.8,116.8-203.8,116.8L246.6,713.5z"/>
	<path fill="#F15A29" d="M334.2,571.8c0,48.4-87.6,142.2-87.6,142.2S159,620.2,159,571.8s39.3-87.6,87.6-87.6
		S334.2,523.3,334.2,571.8z"/>
	<text transform="matrix(1 0 0 1 208.0317 605.379)" fill="#E0E0E0" font-family="'PrestigeEliteStd-Bd'" font-size="121.1881">$</text>
	<circle fill="none" stroke="#636464" stroke-width="20" stroke-miterlimit="10" cx="353.7" cy="526" r="293.9"/>
</g>
</svg>
