<?xml version="1.0" encoding="utf-8"?>
<!-- Generator: Adobe Illustrator 18.1.1, SVG Export Plug-In . SVG Version: 6.00 Build 0)  -->
<!DOCTYPE svg PUBLIC "-//W3C//DTD SVG 1.1//EN" "http://www.w3.org/Graphics/SVG/1.1/DTD/svg11.dtd">
<svg version="1.1" id="Layer_1" xmlns="http://www.w3.org/2000/svg" xmlns:xlink="http://www.w3.org/1999/xlink" x="0px" y="0px"
	 viewBox="60 187.5 492 492" enable-background="new 60 187.5 492 492" xml:space="preserve">
<path display="none" fill="#7F7F7F" d="M304.9,597c0,0-152.1,4.4-150.9-31.1c-0.9-36,321.6-19.3,376.7-62.2
	c19.4-15.1,17.7-39.9,17.7-39.9C546.7,449,531,433,509.5,433l-449.1,0l1.2,24l425.3,0.3c26.1,0,31.5,8.8,28.2,22.7
	c-10.4,43.3-405.1,13-404.5,86.5c0.1,69.6,194.3,67.3,194.3,67.3V597z"/>
<path fill="#69BC45" d="M449.5,399.6c0,79.5-144,233.6-144,233.6s-144-154.2-144-233.6s64.5-144,144-144S449.5,319.9,449.5,399.6z"
	/>
<path display="none" fill="none" stroke="#7F7F7F" stroke-miterlimit="10" d="M551.5,433.5C551.5,569.1,438.9,679,306,679
	C170.4,679,60.5,569.1,60.5,433.5S170.4,188,306,188S551.5,297.9,551.5,433.5z"/>
<circle fill="#FFFFFF" cx="306" cy="397.5" r="76.8"/>
<text transform="matrix(1 0 0 1 248.5337 453.9052)" fill="#69BC45" font-family="'PrestigeEliteStd-Bd'" font-size="189.8902">$</text>
</svg>
