<?xml version="1.0" encoding="utf-8"?>
<!-- Generator: Adobe Illustrator 18.1.1, SVG Export Plug-In . SVG Version: 6.00 Build 0)  -->
<!DOCTYPE svg PUBLIC "-//W3C//DTD SVG 1.1//EN" "http://www.w3.org/Graphics/SVG/1.1/DTD/svg11.dtd">
<svg version="1.1" id="Layer_1" xmlns="http://www.w3.org/2000/svg" xmlns:xlink="http://www.w3.org/1999/xlink" x="0px" y="0px"
	 viewBox="0 0 612 792" enable-background="new 0 0 612 792" xml:space="preserve">
<path display="none" fill="#8CC84B" d="M305.4,682.2c-7.6,0-15.3-2-22-5.9l-69.9-41.4c-10.4-5.9-5.4-7.9-1.9-9.1
	c14-4.8,16.7-6,31.7-14.3c1.6-0.8,3.6-0.6,5.3,0.4l53.8,31.9c1.9,1.1,4.7,1.1,6.5,0l209.5-121.1c1.9-1.1,3.2-3.3,3.2-5.6V275.2
	c0-2.4-1.2-4.5-3.2-5.7L308.7,148.6c-1.9-1.1-4.5-1.1-6.5,0L92.9,269.4c-2,1.2-3.3,3.5-3.3,5.7V517c0,2.3,1.3,4.5,3.3,5.6l57.4,33.1
	c31.2,15.5,50.2-2.7,50.2-21.2V295.8c0-3.3,2.7-6.1,6.1-6.1h26.5c3.3,0,6.1,2.6,6.1,6.1v238.8c0,41.6-22.6,65.4-62,65.4
	c-12.1,0-21.6,0-48.3-13.1l-55-31.7c-13.6-7.9-22-22.5-22-38.2V275.2c0-15.7,8.4-30.4,22-38.2l209.5-121c13.3-7.5,30.8-7.5,44,0
	L537.1,237c13.6,7.9,22,22.5,22,38.2v241.8c0,15.7-8.5,30.4-22,38.2l-209.5,121C320.8,680.1,313.2,682.2,305.4,682.2z"/>
<path display="none" fill="#8CC84B" d="M370.2,515.5c-91.7,0-110.9-42.1-110.9-77.5c0-3.3,2.7-6.1,6.1-6.1h27.1c3,0,5.5,2.2,6,5.1
	c4.1,27.6,16.3,41.5,71.7,41.5c44.1,0,63-10,63-33.5c0-13.5-5.4-23.5-74-30.2c-57.4-5.6-92.8-18.3-92.8-64.2
	c0-42.3,35.6-67.5,95.4-67.5c67.2,0,100.4,23.3,104.6,73.3c0.1,1.7-0.5,3.3-1.6,4.7c-1.2,1.2-2.7,1.9-4.4,1.9h-27.3
	c-2.9,0-5.3-2-5.9-4.8c-6.6-29-22.4-38.2-65.5-38.2c-48.2,0-53.8,16.7-53.8,29.4c0,15.3,6.6,19.7,71.7,28.3
	c64.4,8.5,95,20.6,95,65.9C474.7,489.4,436.6,515.5,370.2,515.5z"/>
<path fill="#E0E0E0" d="M217.1,550.2c0,0,317.7-30.4,282.9-195.9C480.3,261,278.3,303,303.8,222.9c14.2-44.7,46.4-56.5,46.4-56.5
	l-20.2-3c0,0-62.8,39.9-51,97.8c12.4,60.8,132.2,56.6,145.6,88c31.1,73-137.2,96.4-137.2,96.4L217.1,550.2z"/>
<path fill="#69BC45" d="M289.4,433.3c0,39.9-72.3,117.3-72.3,117.3s-72.3-77.4-72.3-117.3s32.4-72.3,72.3-72.3
	C257,361,289.4,393.3,289.4,433.3z"/>
<text transform="matrix(1 0 0 1 185.2705 461)" fill="#E0E0E0" font-family="'PrestigeEliteStd-Bd'" font-size="100">$</text>
<circle fill="none" stroke="#E0E0E0" stroke-width="20" stroke-miterlimit="10" cx="305.5" cy="395.5" r="242.5"/>
</svg>
