<?xml version="1.0" encoding="utf-8"?>
<!-- Generator: Adobe Illustrator 18.1.1, SVG Export Plug-In . SVG Version: 6.00 Build 0)  -->
<!DOCTYPE svg PUBLIC "-//W3C//DTD SVG 1.1//EN" "http://www.w3.org/Graphics/SVG/1.1/DTD/svg11.dtd">
<svg version="1.1" id="Layer_1" xmlns="http://www.w3.org/2000/svg" xmlns:xlink="http://www.w3.org/1999/xlink" x="0px" y="0px"
	 viewBox="0.7 92.6 611.8 611.8" enable-background="new 0.7 92.6 611.8 611.8" xml:space="preserve">
<path display="none" fill="#7F7F7F" d="M305.3,601.9c0,0-189.2,5.5-187.7-38.7c-1.1-44.8,400-24,468.6-77.4
	c24.1-18.8,22-49.6,22-49.6c-2.1-18.4-21.6-38.3-48.4-38.3H1.1l1.5,29.9l529,0.4c32.5,0,39.2,10.9,35.1,28.2
	c-12.9,53.9-503.9,16.2-503.2,107.6c0.1,86.6,241.7,83.7,241.7,83.7L305.3,601.9L305.3,601.9z"/>
<path fill="#69BC45" d="M485.1,356.3c0,98.9-179.1,290.6-179.1,290.6S126.9,455.1,126.9,356.3S207.1,177.2,306,177.2
	S485.1,257.2,485.1,356.3z"/>
<path display="none" fill="none" stroke="#7F7F7F" stroke-miterlimit="10" d="M612,398.5c0,168.7-140.1,305.4-305.4,305.4
	C137.9,703.9,1.2,567.2,1.2,398.5S137.9,93.1,306.6,93.1S612,229.8,612,398.5z"/>
<circle fill="#FFFFFF" cx="306.6" cy="353.7" r="95.5"/>
<text transform="matrix(1 0 0 1 235.14 423.8819)" display="none" fill="#69BC45" enable-background="new    " font-family="'PrestigeEliteStd-Bd'" font-size="236.2049">$</text>
<path fill="#69BC45" d="M299.7,256.7h14.7V282c0,0,24.3-0.5,33.3,13c0.3,0.5-3,5.7,0.3,28h-15.3c0,0,7-28.9-24-28
	c-23.5,0.7-28.1,17.5-28.3,24.3c-0.2,5,2,15.3,28,23.3s45.1,18.7,44.3,40.3c-0.8,23.5-21.7,35.5-38,37.3v30.8h-14.8v-30.9
	c-6.2,1-38.8-8.4-38.8-8.4c0.4-12.8,3.6-16.2-2.2-33.4h15.8c1.8,6-4.9,27.8,31,28.5c17.3,0.4,31.1-8,31.7-24
	c0.5-13.2-11-21.3-31.7-27.7c-26.4-8.1-41.2-19-41-35.7c0.2-18.5,17.5-35.7,35.3-37L299.7,256.7z"/>
</svg>
