<?xml version="1.0" encoding="utf-8"?>
<!-- Generator: Adobe Illustrator 18.1.1, SVG Export Plug-In . SVG Version: 6.00 Build 0)  -->
<!DOCTYPE svg PUBLIC "-//W3C//DTD SVG 1.1//EN" "http://www.w3.org/Graphics/SVG/1.1/DTD/svg11.dtd">
<svg version="1.1" id="Layer_1" xmlns="http://www.w3.org/2000/svg" xmlns:xlink="http://www.w3.org/1999/xlink" x="0px" y="0px"
	 viewBox="0 0 505 505" enable-background="new 0 0 505 505" xml:space="preserve">
<path fill="#E0E0E0" d="M164.1,407.2c0,0,317.7-30.4,282.9-195.9C427.3,118,225.3,160,250.8,79.9c14.2-44.7,46.4-56.5,46.4-56.5
	l-20.2-3c0,0-62.8,39.9-51,97.8c12.4,60.8,132.2,56.6,145.6,88c31.1,73-137.2,96.4-137.2,96.4L164.1,407.2z"/>
<path fill="#69BD45" d="M236.4,290.3c0,39.9-72.3,117.3-72.3,117.3s-72.3-77.4-72.3-117.3s32.4-72.3,72.3-72.3
	C204,218,236.4,250.3,236.4,290.3z"/>
<text transform="matrix(1 0 0 1 132.2705 318)" fill="#E0E0E0" font-family="'PrestigeEliteStd-Bd'" font-size="100">$</text>
<circle fill="none" stroke="#E0E0E0" stroke-width="20" stroke-miterlimit="10" cx="252.5" cy="252.5" r="242.5"/>
</svg>
