<?xml version="1.0" encoding="utf-8"?>
<!-- Generator: Adobe Illustrator 18.1.1, SVG Export Plug-In . SVG Version: 6.00 Build 0)  -->
<!DOCTYPE svg PUBLIC "-//W3C//DTD SVG 1.1//EN" "http://www.w3.org/Graphics/SVG/1.1/DTD/svg11.dtd">
<svg version="1.1" id="Layer_1" xmlns="http://www.w3.org/2000/svg" xmlns:xlink="http://www.w3.org/1999/xlink" x="0px" y="0px"
	 viewBox="0 0 612 792" enable-background="new 0 0 612 792" xml:space="preserve">
<g>
	<circle fill="none" stroke="#6E7575" stroke-width="5" stroke-miterlimit="10" cx="305" cy="396" r="253"/>
	<path fill="#6E7575" d="M461.9,538c-150.7,23.5-253.9-8-253.9-8l19-49c0,0,12.6,13.2,118,26c50.2,2.7,129,7,160.9-23.7
		c8.3-8,10.5-32.1-67.3-38.9C383,440,321,428.5,317,408c-2-27.5,48-32,73-32c57.5,0,168.6,5.6,168,6c-0.9,0.6-123.2-2.8-160.1-2.9
		c-58.9-0.1-70.4,15.9-65.1,26.2c6,11.6,26.2,22.7,100.4,29.3c84.8,8.5,111.6,20.6,109.4,46.4C536.4,507.8,530.6,522.4,461.9,538z"
		/>
</g>
<path fill="#F7763E" d="M197.5,526.5C165,484.7,147,464,123.3,399.8c-11.6-46.1-11.3-88.9,4.7-111.2c22.2-31.2,64.2-31.8,67.3-31.8
	c2.4,0,44.3,0.6,67.3,31.8c15.7,21.3,26,54.1,11.6,111.2c-17.2,62.9-32.5,91.1-58.1,126.7C210.3,532.2,199.6,528.4,197.5,526.5z"/>
<path fill="#FCFCFC" d="M199.6,392.4c-2.1,0-11-0.2-11-0.2v12.9c0,1.1-0.9,2-2,2h-5.9c-1.1,0-2-0.9-2-2v-14.9
	c-15.9-5.4-21.7-17.7-21.7-27.6c0-1.3,1.1-2.3,2.3-2.3h10.4c1.1,0,2.1,0.8,2.3,2c1.6,10.6,6.2,15.9,27.6,15.9
	c16.9,0,24.2-3.9,24.2-12.9c0-5.2-2.1-9-28.4-11.6c-22-2.2-35.6-7-35.6-24.7c0-11.2,7.4-19.3,18.9-23.2v-13.5c0-1.1,0.9-2,2-2h5.9
	c1.1,0,2,0.9,2,2v11c0,0,5.9-0.2,7.8-0.2c2.5,0,12.9,0.2,12.9,0.2v-11c0-1.1,0.9-2,2-2h5.3c1.1,0,2,0.9,2,2v13
	c13.2,3.7,16.8,12.2,18,25.9c0,0.6-0.2,1.3-0.6,1.8c-0.5,0.5-1.1,0.7-1.7,0.7h-10.5c-1.1,0-2-0.8-2.2-1.8
	c-2.5-11.2-8.6-14.7-25.2-14.7c-18.5,0-20.7,6.4-20.7,11.3c0,5.9,2.5,7.6,27.6,10.9c24.7,3.3,36.5,7.9,36.5,25.3
	c0,12.1-8.6,20.6-21.2,24.7v15.7c0,1.1-0.9,2-2,2h-5.3c-1.1,0-2-0.9-2-2v-13.2C209.3,391.9,202.8,392.4,199.6,392.4z"/>
</svg>
